<mxfile host="app.diagrams.net" agent="Mozilla/5.0 (Windows NT 10.0; Win64; x64) AppleWebKit/537.36 (KHTML, like Gecko) Chrome/131.0.0.0 Safari/537.36 Edg/131.0.0.0" version="26.0.4">
  <diagram name="第 1 页" id="PrgpmpTxyYNn3zHiuUF6">
    <mxGraphModel dx="1042" dy="531" grid="0" gridSize="10" guides="1" tooltips="1" connect="1" arrows="1" fold="1" page="1" pageScale="1" pageWidth="1169" pageHeight="1654" math="0" shadow="0">
      <root>
        <mxCell id="0" />
        <mxCell id="1" parent="0" />
        <mxCell id="X_J1swwKOJ65iuezQqAs-1" value="" style="rounded=1;whiteSpace=wrap;html=1;shadow=0;dashed=1;" vertex="1" parent="1">
          <mxGeometry x="136" y="62" width="668" height="341" as="geometry" />
        </mxCell>
        <mxCell id="X_J1swwKOJ65iuezQqAs-3" value="" style="rounded=1;whiteSpace=wrap;html=1;dashed=1;" vertex="1" parent="1">
          <mxGeometry x="217" y="110" width="197" height="129" as="geometry" />
        </mxCell>
        <mxCell id="X_J1swwKOJ65iuezQqAs-4" value="" style="rounded=0;whiteSpace=wrap;html=1;" vertex="1" parent="1">
          <mxGeometry x="257" y="130" width="114" height="37.5" as="geometry" />
        </mxCell>
        <mxCell id="X_J1swwKOJ65iuezQqAs-5" value="" style="rounded=0;whiteSpace=wrap;html=1;" vertex="1" parent="1">
          <mxGeometry x="257" y="181" width="114" height="37.5" as="geometry" />
        </mxCell>
      </root>
    </mxGraphModel>
  </diagram>
</mxfile>
